Results
version=1
nRows=4
nColumns=213
inDegrees=yes
endheader
time	platform_rx	platform_ry	platform_rz	platform_ty	pelvis_tilt	pelvis_list	pelvis_rotation	pelvis_tx	pelvis_ty	pelvis_tz	hip_flexion_r	hip_adduction_r	hip_rotation_r	knee_angle_r	knee_angle_r_beta	ankle_angle_r	subtalar_angle_r	mtp_angle_r	hip_flexion_l	hip_adduction_l	hip_rotation_l	knee_angle_l	knee_angle_l_beta	ankle_angle_l	subtalar_angle_l	mtp_angle_l	lumbar_extension	lumbar_bending	lumbar_rotation	arm_flex_r	arm_add_r	arm_rot_r	elbow_flex_r	pro_sup_r	wrist_flex_r	wrist_dev_r	arm_flex_l	arm_add_l	arm_rot_l	elbow_flex_l	pro_sup_l	wrist_flex_l	wrist_dev_l	platform_rx_u	platform_ry_u	platform_rz_u	platform_ty_u	pelvis_tilt_u	pelvis_list_u	pelvis_rotation_u	pelvis_tx_u	pelvis_ty_u	pelvis_tz_u	hip_flexion_r_u	hip_adduction_r_u	hip_rotation_r_u	knee_angle_r_u	knee_angle_r_beta_u	ankle_angle_r_u	subtalar_angle_r_u	mtp_angle_r_u	hip_flexion_l_u	hip_adduction_l_u	hip_rotation_l_u	knee_angle_l_u	knee_angle_l_beta_u	ankle_angle_l_u	subtalar_angle_l_u	mtp_angle_l_u	lumbar_extension_u	lumbar_bending_u	lumbar_rotation_u	arm_flex_r_u	arm_add_r_u	arm_rot_r_u	elbow_flex_r_u	pro_sup_r_u	wrist_flex_r_u	wrist_dev_r_u	arm_flex_l_u	arm_add_l_u	arm_rot_l_u	elbow_flex_l_u	pro_sup_l_u	wrist_flex_l_u	wrist_dev_l_u	addbrev_r.activation	addlong_r.activation	addlong_r.fiber_length	addmagDist_r.activation	addmagIsch_r.activation	addmagIsch_r.fiber_length	addmagMid_r.activation	addmagProx_r.activation	bflh_r.activation	bflh_r.fiber_length	bfsh_r.activation	edl_r.activation	edl_r.fiber_length	ehl_r.activation	ehl_r.fiber_length	fdl_r.activation	fdl_r.fiber_length	fhl_r.activation	fhl_r.fiber_length	gaslat_r.activation	gaslat_r.fiber_length	gasmed_r.activation	gasmed_r.fiber_length	glmax1_r.activation	glmax2_r.activation	glmax3_r.activation	glmed1_r.activation	glmed2_r.activation	glmed3_r.activation	glmin1_r.activation	glmin2_r.activation	glmin3_r.activation	glmin3_r.fiber_length	grac_r.activation	iliacus_r.activation	perbrev_r.activation	perbrev_r.fiber_length	perlong_r.activation	perlong_r.fiber_length	piri_r.activation	piri_r.fiber_length	psoas_r.activation	recfem_r.activation	recfem_r.fiber_length	sart_r.activation	semimem_r.activation	semimem_r.fiber_length	semiten_r.activation	semiten_r.fiber_length	soleus_r.activation	soleus_r.fiber_length	tfl_r.activation	tfl_r.fiber_length	tibant_r.activation	tibant_r.fiber_length	tibpost_r.activation	tibpost_r.fiber_length	vasint_r.activation	vasint_r.fiber_length	vaslat_r.activation	vaslat_r.fiber_length	vasmed_r.activation	vasmed_r.fiber_length	addbrev_l.activation	addlong_l.activation	addlong_l.fiber_length	addmagDist_l.activation	addmagIsch_l.activation	addmagIsch_l.fiber_length	addmagMid_l.activation	addmagProx_l.activation	bflh_l.activation	bflh_l.fiber_length	bfsh_l.activation	edl_l.activation	edl_l.fiber_length	ehl_l.activation	ehl_l.fiber_length	fdl_l.activation	fdl_l.fiber_length	fhl_l.activation	fhl_l.fiber_length	gaslat_l.activation	gaslat_l.fiber_length	gasmed_l.activation	gasmed_l.fiber_length	glmax1_l.activation	glmax2_l.activation	glmax3_l.activation	glmed1_l.activation	glmed2_l.activation	glmed3_l.activation	glmin1_l.activation	glmin2_l.activation	glmin3_l.activation	glmin3_l.fiber_length	grac_l.activation	iliacus_l.activation	perbrev_l.activation	perbrev_l.fiber_length	perlong_l.activation	perlong_l.fiber_length	piri_l.activation	piri_l.fiber_length	psoas_l.activation	recfem_l.activation	recfem_l.fiber_length	sart_l.activation	semimem_l.activation	semimem_l.fiber_length	semiten_l.activation	semiten_l.fiber_length	soleus_l.activation	soleus_l.fiber_length	tfl_l.activation	tfl_l.fiber_length	tibant_l.activation	tibant_l.fiber_length	tibpost_l.activation	tibpost_l.fiber_length	vasint_l.activation	vasint_l.fiber_length	vaslat_l.activation	vaslat_l.fiber_length	vasmed_l.activation	vasmed_l.fiber_length
      0.00000000	     20.00000000	      0.00000000	      0.00000000	      0.25000000	    -20.98799399	      0.00000000	     -0.00000000	      0.03700000	      0.75599998	      0.00000000	     65.45499373	    -16.16599663	     -9.99996597	     70.24000660	     70.24000660	     24.05898639	      0.00000013	      0.00000000	     65.45499542	    -16.16599669	     -9.99991793	     70.24000683	     70.24000683	     24.05898648	      0.00000000	      0.00000000	      0.00000000	      0.00000000	      0.00000000	     68.99997924	     -0.00001866	     89.85628699	      0.12126178	      0.12123027	      0.00000000	      0.00000000	     68.99997912	     -0.00001646	     89.85633533	      0.12126178	      0.12123027	      0.00000000	      0.00000000	      0.00000000	      0.00000000	      0.00000000	      0.00000000	      0.00000000	      0.00000000	      0.00000000	      0.00000000	      0.00000000	      0.00000000	      0.00000000	      0.00000000	      0.00000000	      0.00000000	      0.00000000	      0.00000000	      0.00000000	      0.00000000	      0.00000000	      0.00000000	      0.00000000	      0.00000000	      0.00000000	      0.00000000	      0.00000000	      0.00000000	      0.00000000	      0.00000000	      0.00000000	      0.00000000	      0.00000000	      0.00000000	      0.00000000	      0.00000000	      0.00000000	      0.00000000	      0.00000000	      0.00000000	      0.00000000	      0.00000000	      0.00000000	      0.00000000	      0.00000000	      0.01000000	      0.01000000	      0.09545920	      0.01000000	      0.01000000	      0.19674377	      0.01000000	      0.01000000	      0.01000000	      0.11593243	      0.01000000	      0.01000000	      0.05429250	      0.01000000	      0.06203661	      0.01000000	      0.04740525	      0.01000000	      0.05568748	      0.01000000	      0.06132886	      0.01000000	      0.05197469	      0.01000000	      0.01000000	      0.01000000	      0.01000000	      0.01000000	      0.01000000	      0.01000000	      0.01000000	      0.01000000	      0.04415658	      0.01000000	      0.01000000	      0.01000000	      0.05048434	      0.01000000	      0.05699105	      0.01000000	      0.02882328	      0.01000000	      0.01000000	      0.06161715	      0.01000000	      0.01000000	      0.07650273	      0.01000000	      0.22646587	      0.01000000	      0.05958402	      0.01000000	      0.04759995	      0.01000000	      0.04842330	      0.01000000	      0.04171709	      0.01000000	      0.12665433	      0.01000000	      0.12410294	      0.01000000	      0.12201508	      0.01000000	      0.01000000	      0.09545920	      0.01000000	      0.01000000	      0.19674377	      0.01000000	      0.01000000	      0.01000000	      0.11593243	      0.01000000	      0.01000000	      0.05429250	      0.01000000	      0.06203661	      0.01000000	      0.04740525	      0.01000000	      0.05568748	      0.01000000	      0.06132886	      0.01000000	      0.05197469	      0.01000000	      0.01000000	      0.01000000	      0.01000000	      0.01000000	      0.01000000	      0.01000000	      0.01000000	      0.01000000	      0.04415656	      0.01000000	      0.01000000	      0.01000000	      0.05048434	      0.01000000	      0.05699105	      0.01000000	      0.02882327	      0.01000000	      0.01000000	      0.06161715	      0.01000000	      0.01000000	      0.07650273	      0.01000000	      0.22646587	      0.01000000	      0.05958402	      0.01000000	      0.04759992	      0.01000000	      0.04842330	      0.01000000	      0.04171709	      0.01000000	      0.12665433	      0.01000000	      0.12410294	      0.01000000	      0.12201508
      0.00083101	     20.00000000	      0.00000000	      0.00000000	      0.25000000	    -20.97992885	     -0.00006904	     -0.00007753	      0.03700178	      0.75601211	      0.00000027	     65.44554723	    -16.16625671	    -10.00053995	     70.23761505	     70.23761505	     24.00486103	     -0.01106837	      0.00000000	     65.44554547	    -16.16668328	    -10.00006255	     70.23766563	     70.23766563	     24.00731629	      0.00000000	      0.00000000	     -0.00996413	      0.00006511	      0.00007720	     69.00193096	     -0.00009982	     89.85624215	      0.12149592	      0.12119558	      0.00000000	     -0.00000000	     69.00193433	     -0.00010557	     89.85629704	      0.12150189	      0.12119724	     -0.00000000	      0.00000000	      0.00000000	      0.00000000	      0.00000000	      0.00000000	     19.39663327	     -0.16507226	     -0.18536714	      0.00429136	      0.02916592	      0.00064302	    -22.72617756	     -0.62624076	     -1.38105715	     -5.76728809	     -5.76728809	   -129.98807354	    -26.54046373	      0.00000000	    -22.73449476	     -1.64723995	     -0.35211137	     -5.64676840	     -5.64676840	   -124.10777555	      0.00000000	      0.00000000	    -23.96299933	      0.15553124	      0.18461198	      4.69277708	     -0.19508417	     -0.10778771	      0.56287833	     -0.08373265	     -0.00000000	     -0.00000000	      4.70122294	     -0.21429770	     -0.09192441	      0.57731954	     -0.07971957	     -0.00000000	      0.00000000	      0.01000000	      0.01000000	      0.09545970	      0.01000000	      0.01000000	      0.19674031	      0.01000000	      0.01000000	      0.01000000	      0.11593128	      0.01000000	      0.01000000	      0.05429506	      0.01000000	      0.06204012	      0.01000000	      0.04740521	      0.01000000	      0.05568707	      0.01000000	      0.06132671	      0.01000000	      0.05197304	      0.01000000	      0.01000000	      0.01000000	      0.01000000	      0.01000000	      0.01000000	      0.01000000	      0.01000000	      0.01000000	      0.04415588	      0.01000000	      0.01000000	      0.01000000	      0.05048303	      0.01000000	      0.05699016	      0.01000000	      0.02882297	      0.01000000	      0.01000000	      0.06161760	      0.01000000	      0.01000000	      0.07650214	      0.01000000	      0.22646331	      0.01000000	      0.05957976	      0.01000000	      0.04760109	      0.01000000	      0.04842881	      0.01000000	      0.04171694	      0.01000000	      0.12665395	      0.01000000	      0.12410263	      0.01000000	      0.12201475	      0.01000000	      0.01000000	      0.09545984	      0.01000000	      0.01000000	      0.19674038	      0.01000000	      0.01000000	      0.01000000	      0.11593129	      0.01000000	      0.01000000	      0.05429516	      0.01000000	      0.06204002	      0.01000000	      0.04740508	      0.01000000	      0.05568695	      0.01000000	      0.06132674	      0.01000000	      0.05197309	      0.01000000	      0.01000000	      0.01000000	      0.01000000	      0.01000000	      0.01000000	      0.01000000	      0.01000000	      0.01000000	      0.04415572	      0.01000000	      0.01000000	      0.01000000	      0.05048383	      0.01000000	      0.05699056	      0.01000000	      0.02882293	      0.01000000	      0.01000000	      0.06161759	      0.01000000	      0.01000000	      0.07650214	      0.01000000	      0.22646333	      0.01000000	      0.05957984	      0.01000000	      0.04760099	      0.01000000	      0.04842830	      0.01000000	      0.04171679	      0.01000000	      0.12665396	      0.01000000	      0.12410264	      0.01000000	      0.12201475
      0.00166202	     20.00000000	      0.00000000	     -0.00000000	      0.25000000	    -20.95577727	     -0.00027170	     -0.00030483	      0.03700715	      0.75604842	      0.00000106	     65.41722198	    -16.16703810	    -10.00226223	     70.23038054	     70.23038054	     23.84377967	     -0.04381100	      0.00000000	     65.41721022	    -16.16872027	    -10.00051642	     70.23057956	     70.23057956	     23.85346789	      0.00000000	      0.00000000	     -0.03979829	      0.00025570	      0.00030366	     69.00776994	     -0.00034242	     89.85610815	      0.12219607	      0.12109062	      0.00000000	     -0.00000000	     69.00778389	     -0.00037225	     89.85618293	      0.12222013	      0.12109731	     -0.00000000	      0.00000000	      0.00000000	      0.00000000	     -0.00000000	      0.00000000	     38.71714554	     -0.32079155	     -0.35936026	      0.00863071	      0.05820686	      0.00125417	    -45.45071586	     -1.25442412	     -2.76575528	    -11.67972726	    -11.67972726	   -257.03683065	    -52.03600471	      0.00000000	    -45.46620320	     -3.24453729	     -0.75121709	    -11.44409694	    -11.44409694	   -245.57066863	      0.00000000	      0.00000000	    -47.82184841	      0.30117208	      0.35816788	      9.35401428	     -0.38848347	     -0.21447542	      1.12135180	     -0.16919983	      0.00000000	     -0.00000000	      9.37105162	     -0.42723731	     -0.18247452	      1.15048180	     -0.16110515	     -0.00000000	      0.00000000	      0.01000000	      0.01000000	      0.09546246	      0.01000000	      0.01000000	      0.19672386	      0.01000000	      0.01000000	      0.01000000	      0.11592440	      0.01000000	      0.01000000	      0.05431587	      0.01000000	      0.06207110	      0.01000000	      0.04740488	      0.01000000	      0.05568440	      0.01000000	      0.06131236	      0.01000000	      0.05196196	      0.01000000	      0.01000000	      0.01000000	      0.01000000	      0.01000000	      0.01000000	      0.01000000	      0.01000000	      0.01000000	      0.04415220	      0.01000000	      0.01000000	      0.01000000	      0.05047494	      0.01000000	      0.05698444	      0.01000000	      0.02882103	      0.01000000	      0.01000000	      0.06162055	      0.01000000	      0.01000000	      0.07649844	      0.01000000	      0.22645041	      0.01000000	      0.05955240	      0.01000000	      0.04760846	      0.01000000	      0.04848293	      0.01000000	      0.04171594	      0.01000000	      0.12665196	      0.01000000	      0.12410099	      0.01000000	      0.12201300	      0.01000000	      0.01000000	      0.09546341	      0.01000000	      0.01000000	      0.19672425	      0.01000000	      0.01000000	      0.01000000	      0.11592447	      0.01000000	      0.01000000	      0.05431707	      0.01000000	      0.06206972	      0.01000000	      0.04740396	      0.01000000	      0.05568350	      0.01000000	      0.06131259	      0.01000000	      0.05196234	      0.01000000	      0.01000000	      0.01000000	      0.01000000	      0.01000000	      0.01000000	      0.01000000	      0.01000000	      0.01000000	      0.04415135	      0.01000000	      0.01000000	      0.01000000	      0.05048070	      0.01000000	      0.05698745	      0.01000000	      0.02882079	      0.01000000	      0.01000000	      0.06162052	      0.01000000	      0.01000000	      0.07649845	      0.01000000	      0.22645056	      0.01000000	      0.05955306	      0.01000000	      0.04760791	      0.01000000	      0.04847628	      0.01000000	      0.04171482	      0.01000000	      0.12665201	      0.01000000	      0.12410103	      0.01000000	      0.12201304
      0.00249302	     20.00000000	      0.00000000	     -0.00000000	      0.25000000	    -20.91560124	     -0.00059889	     -0.00067060	      0.03701615	      0.75610882	      0.00000234	     65.36999217	    -16.16834111	    -10.00514162	     70.21812866	     70.21812866	     23.57888079	     -0.09714253	      0.00000000	     65.36996529	    -16.17205592	    -10.00133274	     70.21856895	     70.21856895	     23.60028224	      0.00000000	      0.00000000	     -0.08941435	      0.00056216	      0.00066847	     69.01746675	     -0.00074497	     89.85588612	      0.12335816	      0.12091377	      0.00000000	     -0.00000000	     69.01749843	     -0.00081512	     89.85599419	      0.12341254	      0.12092888	     -0.00000000	      0.00000000	      0.00000000	      0.00000000	      0.00000000	      0.00000000	     57.96118732	     -0.46469349	     -0.51844957	      0.01304979	      0.08714218	      0.00182233	    -68.22737041	     -1.88074537	     -4.16833148	    -17.85909347	    -17.85909347	   -379.74133019	    -76.07318085	      0.00000000	    -68.24789659	     -4.77106941	     -1.22769529	    -17.51521470	    -17.51521470	   -363.08206217	      0.00000000	      0.00000000	    -71.56980892	      0.43428864	      0.51744539	     13.97657190	     -0.58000220	     -0.31963183	      1.67453003	     -0.25678606	     -0.00000000	      0.00000000	     14.00220441	     -0.63829575	     -0.27148489	      1.71835227	     -0.24460934	     -0.00000000	      0.00000000	      0.01000000	      0.01000000	      0.09546843	      0.01000000	      0.01000000	      0.19669121	      0.01000000	      0.01000000	      0.01000000	      0.11590846	      0.01000000	      0.01000000	      0.05439438	      0.01000000	      0.06218118	      0.01000000	      0.04740404	      0.01000000	      0.05567766	      0.01000000	      0.06127180	      0.01000000	      0.05193108	      0.01000000	      0.01000000	      0.01000000	      0.01000000	      0.01000000	      0.01000000	      0.01000000	      0.01000000	      0.01000000	      0.04414454	      0.01000000	      0.01000000	      0.01000000	      0.05045505	      0.01000000	      0.05696993	      0.01000000	      0.02881627	      0.01000000	      0.01000000	      0.06162821	      0.01000000	      0.01000000	      0.07648935	      0.01000000	      0.22642424	      0.01000000	      0.05948458	      0.01000000	      0.04762776	      0.01000000	      0.04863596	      0.01000000	      0.04171340	      0.01000000	      0.12664782	      0.01000000	      0.12409748	      0.01000000	      0.12200935	      0.01000000	      0.01000000	      0.09547109	      0.01000000	      0.01000000	      0.19669224	      0.01000000	      0.01000000	      0.01000000	      0.11590865	      0.01000000	      0.01000000	      0.05439975	      0.01000000	      0.06217572	      0.01000000	      0.04740108	      0.01000000	      0.05567478	      0.01000000	      0.06127272	      0.01000000	      0.05193253	      0.01000000	      0.01000000	      0.01000000	      0.01000000	      0.01000000	      0.01000000	      0.01000000	      0.01000000	      0.01000000	      0.04414227	      0.01000000	      0.01000000	      0.01000000	      0.05047331	      0.01000000	      0.05697967	      0.01000000	      0.02881553	      0.01000000	      0.01000000	      0.06162812	      0.01000000	      0.01000000	      0.07648938	      0.01000000	      0.22642464	      0.01000000	      0.05948662	      0.01000000	      0.04762592	      0.01000000	      0.04861561	      0.01000000	      0.04170985	      0.01000000	      0.12664795	      0.01000000	      0.12409759	      0.01000000	      0.12200947
